<?xml version="1.0" encoding="UTF-8"?>
<svg width="288px" height="18px" viewBox="0 0 288 18" version="1.1" xmlns="http://www.w3.org/2000/svg" xmlns:xlink="http://www.w3.org/1999/xlink">
    <!-- Generator: Sketch 49 (51002) - http://www.bohemiancoding.com/sketch -->
    <title>Logos/dendy-horizontal</title>
    <desc>Created with Sketch.</desc>
    <defs>
        <polygon id="path-1" points="0 0 288 0 288 18 0 18"></polygon>
    </defs>
    <g id="Symbols" stroke="none" stroke-width="1" fill="none" fill-rule="evenodd">
        <g id="HEADER/Home" transform="translate(-13.000000, -37.000000)">
            <g id="Logos/dendy-horizontal" transform="translate(13.000000, 37.000000)">
                <g>
                    <mask id="mask-2" fill="white">
                        <use xlink:href="#path-1"></use>
                    </mask>
                    <g id="Clip-2"></g>
                    <path d="M0,17.7502422 L7.33468144,17.7502422 C13.0368032,17.7502422 17.5078765,14.9251512 17.5078765,8.8753567 C17.5078765,3.10029583 13.137181,0.250229076 6.98288566,0.250229076 L0,0.250229076 L0,0.300180642 C1.15529163,0.950022253 1.40670961,1.70023824 1.40670961,3.35005367 L1.40670961,14.6499463 C1.40670961,16.300233 1.15529163,17.050449 0,17.7002906 L0,17.7502422 Z M5.17419138,17.0999293 L5.17419138,0.900070686 L6.75703562,0.900070686 C10.8512187,0.900070686 13.4383144,3.77511323 13.4383144,8.8753567 C13.4383144,14.4751158 10.8261243,17.0999293 6.98288566,17.0999293 L5.17419138,17.0999293 Z M21.235586,0.250229076 L21.235586,0.300180642 C22.3908776,0.950022253 22.6418221,1.70023824 22.6418221,3.35005367 L22.6418221,14.6499463 C22.6418221,16.300233 22.3908776,17.050449 21.235586,17.7002906 L21.235586,17.7502422 L35.4773963,17.7502422 L36.2813656,12.8502762 L36.2311767,12.8502762 C34.8244671,15.4001623 33.3675686,17.0999293 30.2279215,17.0999293 L26.4097774,17.0999293 L26.4097774,9.12511454 L29.1981021,9.12511454 C31.2326465,9.12511454 31.960859,9.42529518 32.7899228,11.7254235 L32.8401117,11.7254235 L32.8401117,5.60023038 L32.7899228,5.60023038 C31.960859,7.92486321 31.2326465,8.42532136 29.1981021,8.42532136 L26.4097774,8.42532136 L26.4097774,0.900070686 L29.8008424,0.900070686 C32.8150172,0.900070686 34.1464435,2.25017672 35.5531531,4.7001597 L35.603342,4.7001597 L34.7491837,0.0499515669 C34.4229559,0.200277509 33.8950255,0.250229076 33.1919074,0.250229076 L21.235586,0.250229076 Z M57.2380718,0.300180642 L57.2380718,0.250229076 L52.5908638,0.250229076 L52.5908638,0.300180642 C53.972479,0.900070686 54.6003137,2.07534623 54.6003137,4.05031809 L54.6003137,11.7749038 L45.4067491,0.250229076 L40.0062342,0.250229076 L40.0062342,0.300180642 C41.1619993,0.950022253 41.4129438,1.70023824 41.4129438,3.35005367 L41.4129438,14.0500563 C41.4129438,15.925125 40.785109,17.050449 39.5289661,17.7002906 L39.5289661,17.7502422 L44.1761741,17.7502422 L44.1761741,17.7002906 C42.7945589,17.0999293 42.1667242,15.925125 42.1667242,13.9501532 L42.1667242,2.35007985 L54.6505026,17.8751211 L55.3540941,17.8751211 L55.3540941,3.94994371 C55.3540941,2.07534623 55.9568344,0.950022253 57.2380718,0.300180642 Z M60.9454215,17.7502422 L68.280103,17.7502422 C73.9817513,17.7502422 78.4532981,14.9251512 78.4532981,8.8753567 C78.4532981,3.10029583 74.0826026,0.250229076 67.9283072,0.250229076 L60.9454215,0.250229076 L60.9454215,0.300180642 C62.1007132,0.950022253 62.3521312,1.70023824 62.3521312,3.35005367 L62.3521312,14.6499463 C62.3521312,16.300233 62.1007132,17.050449 60.9454215,17.7002906 L60.9454215,17.7502422 Z M66.1196129,17.0999293 L66.1196129,0.900070686 L67.7024572,0.900070686 C71.7966403,0.900070686 74.3842094,3.77511323 74.3842094,8.8753567 C74.3842094,14.4751158 71.7715458,17.0999293 67.9283072,17.0999293 L66.1196129,17.0999293 Z M90.135948,9.47524675 L86.217426,2.87504254 C85.9409136,2.4250072 85.8405358,2.05037045 85.8405358,1.72521402 C85.8405358,1.09987695 86.1421427,0.725240202 86.7699774,0.300180642 L86.7699774,0.250229076 L79.912564,0.250229076 L79.912564,0.300180642 C80.8921945,1.0249496 81.4196514,1.70023824 82.1483374,2.90001833 L86.7699774,10.425269 L86.7699774,14.7752965 C86.7699774,16.4251119 86.4432761,17.050449 85.2879845,17.7002906 L85.2879845,17.7502422 L91.843791,17.7502422 L91.843791,17.7002906 C90.6884994,17.050449 90.3868925,16.4251119 90.3868925,14.7752965 L90.3868925,10.425269 L94.9081547,3.05034427 C95.6368407,1.85009294 96.2897699,1.00044506 97.3200627,0.300180642 L97.3200627,0.250229076 L93.2254062,0.250229076 L93.2254062,0.300180642 C94.004281,0.700264419 94.3556033,1.30015446 94.3556033,1.94999607 C94.3556033,2.35007985 94.2301311,2.75016363 93.9791866,3.17522319 L90.135948,9.47524675 Z M113.270189,0.900070686 L115.756907,0.900070686 C118.318909,0.900070686 119.700524,2.40003142 119.700524,4.97536456 C119.700524,7.67510537 118.193436,8.92483703 115.756907,8.92483703 L113.270189,8.92483703 L113.270189,0.900070686 Z M108.095525,0.250229076 L108.095525,0.300180642 C109.25129,0.950022253 109.502234,1.70023824 109.502234,3.35005367 L109.502234,14.6499463 C109.502234,16.300233 109.25129,17.050449 108.095525,17.7002906 L108.095525,17.7502422 L114.676899,17.7502422 L114.676899,17.7002906 C113.521134,17.050449 113.270189,16.300233 113.270189,14.6499463 L113.270189,9.60012566 L115.329828,9.60012566 C117.314184,9.60012566 117.992681,10.77493 118.495043,12.3003377 L119.323634,15.0505013 C119.700524,16.2003299 120.102508,17.1748567 120.65506,17.7502422 L125.955197,17.7502422 L125.955197,17.7002906 C124.473204,17.050449 123.844896,16.4251119 123.242156,14.6249705 L122.589226,12.6250229 C121.911203,10.6500511 120.579776,9.5501741 117.942492,9.37534361 C120.855815,9.32539205 123.719424,7.95031023 123.719424,4.89996597 C123.719424,1.52493651 120.855815,0.250229076 117.138523,0.250229076 L108.095525,0.250229076 Z M129.404027,0.250229076 L129.404027,0.300180642 C130.559318,0.950022253 130.810263,1.70023824 130.810263,3.35005367 L130.810263,14.6499463 C130.810263,16.300233 130.559318,17.050449 129.404027,17.7002906 L129.404027,17.7502422 L143.64631,17.7502422 L144.45028,12.8502762 L144.399617,12.8502762 C142.992908,15.4001623 141.536009,17.0999293 138.396362,17.0999293 L134.578218,17.0999293 L134.578218,9.12511454 L137.366543,9.12511454 C139.401087,9.12511454 140.129773,9.42529518 140.958363,11.7254235 L141.008552,11.7254235 L141.008552,5.60023038 L140.958363,5.60023038 C140.129773,7.92486321 139.401087,8.42532136 137.366543,8.42532136 L134.578218,8.42532136 L134.578218,0.900070686 L137.969283,0.900070686 C140.983458,0.900070686 142.314884,2.25017672 143.721594,4.7001597 L143.771783,4.7001597 L142.917624,0.0499515669 C142.590923,0.200277509 142.06394,0.250229076 141.360348,0.250229076 L129.404027,0.250229076 Z M154.756049,0.524962693 C157.393334,0.524962693 159.076556,2.44998298 160.457698,5.05029191 L160.50836,5.05029191 L160.407982,0 C160.031092,0.350132209 159.629107,0.775191769 158.925989,0.775191769 C157.996548,0.775191769 156.690216,0 154.756049,0 C151.264606,0 148.677037,2.00041888 148.677037,5.12521926 C148.677037,8.60015184 151.264606,9.60012566 153.801513,10.3753174 C156.263137,11.150038 158.674571,11.7503992 158.674571,14.2003822 C158.674571,16.300233 157.167484,17.4750373 155.032088,17.4750373 C152.54537,17.4750373 150.109315,15.5005367 148.552038,12.3248423 L148.501376,12.3248423 L148.878266,18 C149.40525,17.5499647 149.882991,17.2003037 150.586583,17.2003037 C151.615929,17.2003037 153.022638,18 155.057656,18 C158.448248,18 161.513085,16.2253057 161.513085,12.7253973 C161.513085,8.70005498 158.272586,7.8504071 155.459167,7.02526376 C153.34934,6.40039794 151.515551,5.67515773 151.515551,3.55033118 C151.515551,1.57488808 152.997544,0.524962693 154.756049,0.524962693 Z M170.572655,14.6499463 L170.572655,3.35005367 C170.572655,1.70023824 170.824073,0.950022253 171.979838,0.300180642 L171.979838,0.250229076 L165.398463,0.250229076 L165.398463,0.300180642 C166.553755,0.950022253 166.804699,1.70023824 166.804699,3.35005367 L166.804699,14.6499463 C166.804699,16.300233 166.553755,17.050449 165.398463,17.7002906 L165.398463,17.7502422 L171.979838,17.7502422 L171.979838,17.7002906 C170.824073,17.050449 170.572655,16.300233 170.572655,14.6499463 Z M175.942867,17.7502422 L183.277548,17.7502422 C188.97967,17.7502422 193.450743,14.9251512 193.450743,8.8753567 C193.450743,3.10029583 189.080048,0.250229076 182.925752,0.250229076 L175.942867,0.250229076 L175.942867,0.300180642 C177.098632,0.950022253 177.349576,1.70023824 177.349576,3.35005367 L177.349576,14.6499463 C177.349576,16.300233 177.098632,17.050449 175.942867,17.7002906 L175.942867,17.7502422 Z M181.117532,17.0999293 L181.117532,0.900070686 L182.700376,0.900070686 C186.794559,0.900070686 189.381655,3.77511323 189.381655,8.8753567 C189.381655,14.4751158 186.768991,17.0999293 182.925752,17.0999293 L181.117532,17.0999293 Z M197.178453,0.250229076 L197.178453,0.300180642 C198.333744,0.950022253 198.585162,1.70023824 198.585162,3.35005367 L198.585162,14.6499463 C198.585162,16.300233 198.333744,17.050449 197.178453,17.7002906 L197.178453,17.7502422 L211.420736,17.7502422 L212.224232,12.8502762 L212.174517,12.8502762 C210.767807,15.4001623 209.310909,17.0999293 206.170788,17.0999293 L202.353118,17.0999293 L202.353118,9.12511454 L205.140969,9.12511454 C207.175513,9.12511454 207.904199,9.42529518 208.732789,11.7254235 L208.783452,11.7254235 L208.783452,5.60023038 L208.732789,5.60023038 C207.904199,7.92486321 207.175513,8.42532136 205.140969,8.42532136 L202.353118,8.42532136 L202.353118,0.900070686 L205.744183,0.900070686 C208.758357,0.900070686 210.08931,2.25017672 211.49602,4.7001597 L211.546682,4.7001597 L210.692524,0.0499515669 C210.365823,0.200277509 209.838366,0.250229076 209.135248,0.250229076 L197.178453,0.250229076 Z M233.180938,0.300180642 L233.180938,0.250229076 L228.533731,0.250229076 L228.533731,0.300180642 C229.915346,0.900070686 230.543654,2.07534623 230.543654,4.05031809 L230.543654,11.7749038 L221.350089,0.250229076 L215.949101,0.250229076 L215.949101,0.300180642 C217.104866,0.950022253 217.356284,1.70023824 217.356284,3.35005367 L217.356284,14.0500563 C217.356284,15.925125 216.728449,17.050449 215.472306,17.7002906 L215.472306,17.7502422 L220.119041,17.7502422 L220.119041,17.7002906 C218.737899,17.0999293 218.109591,15.925125 218.109591,13.9501532 L218.109591,2.35007985 L230.593843,17.8751211 L231.296961,17.8751211 L231.296961,3.94994371 C231.296961,2.07534623 231.900175,0.950022253 233.180938,0.300180642 Z M251.527822,0 C251.075648,0.42505956 250.648569,0.800167552 249.895262,0.800167552 C249.090819,0.800167552 247.810056,0 245.624945,0 C240.526036,0 236.356097,3.80008901 236.356097,9.15009032 C236.356097,14.4751158 240.048295,18 244.971542,18 C248.81478,18 251.427444,15.925125 252.180751,12.6499987 L252.029711,12.6000471 C250.849325,15.200356 248.990915,16.0749797 246.579481,16.0749797 C243.263699,16.0749797 240.475374,13.3003115 240.475374,8.47527293 C240.475374,4.05031809 242.434635,0.57491426 245.926078,0.57491426 C248.538268,0.57491426 250.497529,2.72518784 251.653294,5.77506087 L251.703483,5.77506087 L251.527822,0 Z M255.890942,0.250229076 L255.890942,0.300180642 C257.046233,0.950022253 257.297178,1.70023824 257.297178,3.35005367 L257.297178,14.6499463 C257.297178,16.300233 257.046233,17.050449 255.890942,17.7002906 L255.890942,17.7502422 L270.133225,17.7502422 L270.936721,12.8502762 L270.887006,12.8502762 C269.480296,15.4001623 268.023398,17.0999293 264.883277,17.0999293 L261.065133,17.0999293 L261.065133,9.12511454 L263.853458,9.12511454 C265.888002,9.12511454 266.616688,9.42529518 267.445279,11.7254235 L267.495941,11.7254235 L267.495941,5.60023038 L267.445279,5.60023038 C266.616688,7.92486321 265.888002,8.42532136 263.853458,8.42532136 L261.065133,8.42532136 L261.065133,0.900070686 L264.456672,0.900070686 C267.470846,0.900070686 268.801799,2.25017672 270.208509,4.7001597 L270.258698,4.7001597 L269.405013,0.0499515669 C269.078312,0.200277509 268.550855,0.250229076 267.847737,0.250229076 L255.890942,0.250229076 Z M281.242964,0.524962693 C283.880249,0.524962693 285.563471,2.44998298 286.945086,5.05029191 L286.995275,5.05029191 L286.894424,0 C286.518007,0.350132209 286.116022,0.775191769 285.412431,0.775191769 C284.482989,0.775191769 283.177604,0 281.242964,0 C277.751522,0 275.164426,2.00041888 275.164426,5.12521926 C275.164426,8.60015184 277.751522,9.60012566 280.288428,10.3753174 C282.750052,11.150038 285.161486,11.7503992 285.161486,14.2003822 C285.161486,16.300233 283.654399,17.4750373 281.519477,17.4750373 C279.032759,17.4750373 276.59623,15.5005367 275.03848,12.3248423 L274.988291,12.3248423 L275.365655,18 C275.892638,17.5499647 276.37038,17.2003037 277.073498,17.2003037 C278.103317,17.2003037 279.510027,18 281.544098,18 C284.935636,18 288,16.2253057 288,12.7253973 C288,8.70005498 284.759502,7.8504071 281.946556,7.02526376 C279.836255,6.40039794 278.002466,5.67515773 278.002466,3.55033118 C278.002466,1.57488808 279.484932,0.524962693 281.242964,0.524962693 Z" id="Fill-1" fill="#231F20" mask="url(#mask-2)"></path>
                </g>
            </g>
        </g>
    </g>
</svg>